<?xml version="1.0" encoding="UTF-8" standalone="no"?>
<svg xmlns:dc="http://purl.org/dc/elements/1.1/"
   xmlns:cc="http://creativecommons.org/ns#"
   xmlns:rdf="http://www.w3.org/1999/02/22-rdf-syntax-ns#"
   xmlns:svg="http://www.w3.org/2000/svg"
   xmlns="http://www.w3.org/2000/svg" viewBox="0 0 190 190" version="1.1" preserveAspectRatio="false" id="svg8">
   <style>
      path {
         fill: #181818;
      }
   </style>
   <defs id="defs2" />
   <metadata id="metadata5">
      <rdf:RDF>
         <cc:Work rdf:about="">
            <dc:format>image/svg+xml</dc:format>
            <dc:type rdf:resource="http://purl.org/dc/dcmitype/StillImage" />
            <dc:title></dc:title>
         </cc:Work>
      </rdf:RDF>
   </metadata>
   <g id="layer1">
      <g id="g1241" transform="translate(-196.29671,-196.56396)">
         <path style="color:#000000;font-style:normal;font-variant:normal;font-weight:normal;font-stretch:normal;font-size:medium;line-height:normal;font-family:sans-serif;font-variant-ligatures:normal;font-variant-position:normal;font-variant-caps:normal;font-variant-numeric:normal;font-variant-alternates:normal;font-variant-east-asian:normal;font-feature-settings:normal;font-variation-settings:normal;text-indent:0;text-align:start;text-decoration:none;text-decoration-line:none;text-decoration-style:solid;text-decoration-color:#000000;letter-spacing:normal;word-spacing:normal;text-transform:none;writing-mode:lr-tb;direction:ltr;text-orientation:mixed;dominant-baseline:auto;baseline-shift:baseline;text-anchor:start;white-space:normal;shape-padding:0;shape-margin:0;inline-size:0;clip-rule:nonzero;display:inline;overflow:visible;visibility:visible;isolation:auto;mix-blend-mode:normal;color-interpolation:sRGB;color-interpolation-filters:linearRGB;solid-color:#000000;solid-opacity:1;vector-effect:none;fill-opacity:1;fill-rule:nonzero;stroke:none;stroke-width:4.99109;stroke-linecap:round;stroke-linejoin:round;stroke-miterlimit:4;stroke-dasharray:none;stroke-dashoffset:0;stroke-opacity:1;color-rendering:auto;image-rendering:auto;shape-rendering:auto;text-rendering:auto;enable-background:accumulate;stop-color:#000000;stop-opacity:1;opacity:1" d="M 203.38086 242.54297 A 2.4955449 2.4955449 0 0 0 201.30469 243.66797 L 195.34961 252.71875 L 186.31641 246.73828 A 2.4957945 2.4957945 0 0 0 182.85547 247.44727 L 176.90039 256.49805 L 167.86719 250.51758 A 2.4957945 2.4957945 0 0 0 164.4043 251.22656 L 158.41211 260.33789 L 149.46289 254.7793 A 2.4957945 2.4957945 0 0 0 146.10352 255.46875 L 140.06055 264.09766 L 130.96875 258.07617 A 2.4955449 2.4955449 0 0 0 127.50977 258.7793 A 2.4955449 2.4955449 0 0 0 128.21289 262.23828 L 139.33203 269.60156 A 2.4957945 2.4957945 0 0 0 142.75391 268.95117 L 148.83594 260.26562 L 157.84375 265.86133 A 2.4957945 2.4957945 0 0 0 161.24609 265.11133 L 167.19922 256.06055 L 176.23242 262.04102 A 2.4957945 2.4957945 0 0 0 179.69531 261.33203 L 185.65039 252.28125 L 194.68164 258.26172 A 2.4957945 2.4957945 0 0 0 198.14453 257.55273 L 205.47461 246.41016 A 2.4955449 2.4955449 0 0 0 204.76172 242.95312 A 2.4955449 2.4955449 0 0 0 203.38086 242.54297 z " id="path2915" />
         <path style="color:#000000;font-style:normal;font-variant:normal;font-weight:normal;font-stretch:normal;font-size:medium;line-height:normal;font-family:sans-serif;font-variant-ligatures:normal;font-variant-position:normal;font-variant-caps:normal;font-variant-numeric:normal;font-variant-alternates:normal;font-variant-east-asian:normal;font-feature-settings:normal;font-variation-settings:normal;text-indent:0;text-align:start;text-decoration:none;text-decoration-line:none;text-decoration-style:solid;text-decoration-color:#000000;letter-spacing:normal;word-spacing:normal;text-transform:none;writing-mode:lr-tb;direction:ltr;text-orientation:mixed;dominant-baseline:auto;baseline-shift:baseline;text-anchor:start;white-space:normal;shape-padding:0;shape-margin:0;inline-size:0;clip-rule:nonzero;display:inline;overflow:visible;visibility:visible;isolation:auto;mix-blend-mode:normal;color-interpolation:sRGB;color-interpolation-filters:linearRGB;solid-color:#000000;solid-opacity:1;vector-effect:none;fill-opacity:1;fill-rule:evenodd;stroke:none;stroke-width:4.99108;stroke-linecap:round;stroke-linejoin:round;stroke-miterlimit:4;stroke-dasharray:none;stroke-dashoffset:0;stroke-opacity:1;color-rendering:auto;image-rendering:auto;shape-rendering:auto;text-rendering:auto;enable-background:accumulate;stop-color:#000000;stop-opacity:1;opacity:1" d="M 343.09961 176.33398 A 2.4957895 2.4957895 0 0 0 341.26172 177.07812 L 324.33594 194.2832 L 307.41016 211.48633 A 2.4957895 2.4957895 0 0 0 308.5625 215.65234 L 331.92383 221.70898 L 355.28711 227.76562 A 2.4957895 2.4957895 0 0 0 358.31836 224.68359 L 351.88281 201.42383 L 345.44727 178.16406 A 2.4957895 2.4957895 0 0 0 343.09961 176.33398 z M 341.78906 183.66016 L 347.07227 202.75391 L 352.35547 221.84961 L 333.17773 216.87695 L 314 211.9043 L 327.89453 197.7832 L 341.78906 183.66016 z " id="path2883" />
         <path style="color:#000000;font-style:normal;font-variant:normal;font-weight:normal;font-stretch:normal;font-size:medium;line-height:normal;font-family:sans-serif;font-variant-ligatures:normal;font-variant-position:normal;font-variant-caps:normal;font-variant-numeric:normal;font-variant-alternates:normal;font-variant-east-asian:normal;font-feature-settings:normal;font-variation-settings:normal;text-indent:0;text-align:start;text-decoration:none;text-decoration-line:none;text-decoration-style:solid;text-decoration-color:#000000;letter-spacing:normal;word-spacing:normal;text-transform:none;writing-mode:lr-tb;direction:ltr;text-orientation:mixed;dominant-baseline:auto;baseline-shift:baseline;text-anchor:start;white-space:normal;shape-padding:0;shape-margin:0;inline-size:0;clip-rule:nonzero;display:inline;overflow:visible;visibility:visible;isolation:auto;mix-blend-mode:normal;color-interpolation:sRGB;color-interpolation-filters:linearRGB;solid-color:#000000;solid-opacity:1;vector-effect:none;fill-opacity:1;fill-rule:nonzero;stroke:none;stroke-width:4.99108;stroke-linecap:round;stroke-linejoin:round;stroke-miterlimit:4;stroke-dasharray:none;stroke-dashoffset:0;stroke-opacity:1;color-rendering:auto;image-rendering:auto;shape-rendering:auto;text-rendering:auto;enable-background:accumulate;stop-color:#000000;stop-opacity:1;opacity:1" d="M 229.56836 170.91406 C 215.17955 170.91406 203.46093 182.63072 203.46094 197.01953 C 203.46094 211.40834 215.17955 223.12696 229.56836 223.12695 C 243.95716 223.12695 255.67578 211.40834 255.67578 197.01953 C 255.67578 182.63072 243.95717 170.91407 229.56836 170.91406 z M 229.56836 175.9043 C 241.25979 175.9043 250.6836 185.3281 250.68359 197.01953 C 250.68359 208.71096 241.25979 218.13672 229.56836 218.13672 C 217.87693 218.13672 208.45313 208.71096 208.45312 197.01953 C 208.45312 185.3281 217.87693 175.90429 229.56836 175.9043 z " id="path2887" />
         <path style="color:#000000;font-style:normal;font-variant:normal;font-weight:normal;font-stretch:normal;font-size:medium;line-height:normal;font-family:sans-serif;font-variant-ligatures:normal;font-variant-position:normal;font-variant-caps:normal;font-variant-numeric:normal;font-variant-alternates:normal;font-variant-east-asian:normal;font-feature-settings:normal;font-variation-settings:normal;text-indent:0;text-align:start;text-decoration:none;text-decoration-line:none;text-decoration-style:solid;text-decoration-color:#000000;letter-spacing:normal;word-spacing:normal;text-transform:none;writing-mode:lr-tb;direction:ltr;text-orientation:mixed;dominant-baseline:auto;baseline-shift:baseline;text-anchor:start;white-space:normal;shape-padding:0;shape-margin:0;inline-size:0;clip-rule:nonzero;display:inline;overflow:visible;visibility:visible;isolation:auto;mix-blend-mode:normal;color-interpolation:sRGB;color-interpolation-filters:linearRGB;solid-color:#000000;solid-opacity:1;vector-effect:none;fill-opacity:1;fill-rule:nonzero;stroke:none;stroke-width:4.99108;stroke-linecap:round;stroke-linejoin:round;stroke-miterlimit:4;stroke-dasharray:none;stroke-dashoffset:0;stroke-opacity:1;color-rendering:auto;image-rendering:auto;shape-rendering:auto;text-rendering:auto;enable-background:accumulate;stop-color:#000000;stop-opacity:1;opacity:1" d="M 94.144531 319.07422 A 2.4957895 2.4957895 0 0 0 91.650391 321.57031 L 91.650391 369.5918 A 2.4957895 2.4957895 0 0 0 94.144531 372.08789 L 142.16797 372.08789 A 2.4957895 2.4957895 0 0 0 144.66406 369.5918 L 144.66406 321.57031 A 2.4957895 2.4957895 0 0 0 142.16797 319.07422 L 94.144531 319.07422 z M 96.640625 324.06445 L 139.67188 324.06445 L 139.67188 367.09766 L 96.640625 367.09766 L 96.640625 324.06445 z " id="path2891" transform="rotate(-26.331213)" />
         <path style="color:#000000;font-style:normal;font-variant:normal;font-weight:normal;font-stretch:normal;font-size:medium;line-height:normal;font-family:sans-serif;font-variant-ligatures:normal;font-variant-position:normal;font-variant-caps:normal;font-variant-numeric:normal;font-variant-alternates:normal;font-variant-east-asian:normal;font-feature-settings:normal;font-variation-settings:normal;text-indent:0;text-align:start;text-decoration:none;text-decoration-line:none;text-decoration-style:solid;text-decoration-color:#000000;letter-spacing:normal;word-spacing:normal;text-transform:none;writing-mode:lr-tb;direction:ltr;text-orientation:mixed;dominant-baseline:auto;baseline-shift:baseline;text-anchor:start;white-space:normal;shape-padding:0;shape-margin:0;inline-size:0;clip-rule:nonzero;display:inline;overflow:visible;visibility:visible;isolation:auto;mix-blend-mode:normal;color-interpolation:sRGB;color-interpolation-filters:linearRGB;solid-color:#000000;solid-opacity:1;vector-effect:none;fill-opacity:1;fill-rule:nonzero;stroke:none;stroke-width:4.99109;stroke-linecap:round;stroke-linejoin:round;stroke-miterlimit:4;stroke-dasharray:none;stroke-dashoffset:0;stroke-opacity:1;color-rendering:auto;image-rendering:auto;shape-rendering:auto;text-rendering:auto;enable-background:accumulate;stop-color:#000000;stop-opacity:1;opacity:1" d="M 393.38086 242.54297 A 2.4955449 2.4955449 0 0 0 391.30469 243.66797 L 385.34961 252.71875 L 376.31836 246.73828 A 2.4957945 2.4957945 0 0 0 372.85547 247.44727 L 366.90039 256.49805 L 357.86719 250.51758 A 2.4957945 2.4957945 0 0 0 354.4043 251.22656 L 348.41211 260.33789 L 339.46484 254.7793 A 2.4957945 2.4957945 0 0 0 336.10352 255.46875 L 330.06055 264.09766 L 320.96875 258.07617 A 2.4955449 2.4955449 0 0 0 317.50977 258.7793 A 2.4955449 2.4955449 0 0 0 318.21289 262.23828 L 329.33398 269.60156 A 2.4957945 2.4957945 0 0 0 332.75586 268.95117 L 338.83789 260.26562 L 347.84375 265.86133 A 2.4957945 2.4957945 0 0 0 351.24609 265.11133 L 357.19922 256.05859 L 366.23242 262.04102 A 2.4957945 2.4957945 0 0 0 369.69531 261.33203 L 375.65039 252.28125 L 384.68359 258.26172 A 2.4957945 2.4957945 0 0 0 388.14453 257.55273 L 395.47461 246.41016 A 2.4955449 2.4955449 0 0 0 394.76172 242.95312 A 2.4955449 2.4955449 0 0 0 393.38086 242.54297 z " id="path2919" />
         <path style="color:#000000;font-style:normal;font-variant:normal;font-weight:normal;font-stretch:normal;font-size:medium;line-height:normal;font-family:sans-serif;font-variant-ligatures:normal;font-variant-position:normal;font-variant-caps:normal;font-variant-numeric:normal;font-variant-alternates:normal;font-variant-east-asian:normal;font-feature-settings:normal;font-variation-settings:normal;text-indent:0;text-align:start;text-decoration:none;text-decoration-line:none;text-decoration-style:solid;text-decoration-color:#000000;letter-spacing:normal;word-spacing:normal;text-transform:none;writing-mode:lr-tb;direction:ltr;text-orientation:mixed;dominant-baseline:auto;baseline-shift:baseline;text-anchor:start;white-space:normal;shape-padding:0;shape-margin:0;inline-size:0;clip-rule:nonzero;display:inline;overflow:visible;visibility:visible;isolation:auto;mix-blend-mode:normal;color-interpolation:sRGB;color-interpolation-filters:linearRGB;solid-color:#000000;solid-opacity:1;vector-effect:none;fill-opacity:1;fill-rule:evenodd;stroke:none;stroke-width:4.99999;stroke-linecap:round;stroke-linejoin:round;stroke-miterlimit:4;stroke-dasharray:none;stroke-dashoffset:0;stroke-opacity:1;color-rendering:auto;image-rendering:auto;shape-rendering:auto;text-rendering:auto;enable-background:accumulate;stop-color:#000000;stop-opacity:1;opacity:1" d="M 86.875 79.236328 A 2.500245 2.500245 0 0 0 85.166016 79.982422 L 68.208984 97.216797 L 51.253906 114.45117 A 2.500245 2.500245 0 0 0 52.408203 118.62305 L 75.8125 124.69141 L 99.214844 130.75781 A 2.500245 2.500245 0 0 0 102.25195 127.67188 L 95.804688 104.37109 L 89.357422 81.068359 A 2.500245 2.500245 0 0 0 86.875 79.236328 z M 85.693359 86.574219 L 90.986328 105.70312 L 96.279297 124.83203 L 77.066406 119.85156 L 57.855469 114.86914 L 71.773438 100.72266 L 85.693359 86.574219 z " id="path2895" transform="matrix(0.41116272,0.90960776,-0.90960776,0.41116272,275.64652,202.55901)" />
         <path style="color:#000000;font-style:normal;font-variant:normal;font-weight:normal;font-stretch:normal;font-size:medium;line-height:normal;font-family:sans-serif;font-variant-ligatures:normal;font-variant-position:normal;font-variant-caps:normal;font-variant-numeric:normal;font-variant-alternates:normal;font-variant-east-asian:normal;font-feature-settings:normal;font-variation-settings:normal;text-indent:0;text-align:start;text-decoration:none;text-decoration-line:none;text-decoration-style:solid;text-decoration-color:#000000;letter-spacing:normal;word-spacing:normal;text-transform:none;writing-mode:lr-tb;direction:ltr;text-orientation:mixed;dominant-baseline:auto;baseline-shift:baseline;text-anchor:start;white-space:normal;shape-padding:0;shape-margin:0;inline-size:0;clip-rule:nonzero;display:inline;overflow:visible;visibility:visible;isolation:auto;mix-blend-mode:normal;color-interpolation:sRGB;color-interpolation-filters:linearRGB;solid-color:#000000;solid-opacity:1;vector-effect:none;fill-opacity:1;fill-rule:nonzero;stroke:none;stroke-width:4.99109;stroke-linecap:round;stroke-linejoin:round;stroke-miterlimit:4;stroke-dasharray:none;stroke-dashoffset:0;stroke-opacity:1;color-rendering:auto;image-rendering:auto;shape-rendering:auto;text-rendering:auto;enable-background:accumulate;stop-color:#000000;stop-opacity:1;opacity:1" d="M 402.6875 187.44727 A 2.4957945 2.4957945 0 0 0 400.19336 189.94141 L 400.19336 227.87891 A 2.4957945 2.4957945 0 0 0 402.6875 230.375 L 440.625 230.375 A 2.4957945 2.4957945 0 0 0 443.12109 227.87891 L 443.12109 189.94141 A 2.4957945 2.4957945 0 0 0 440.625 187.44727 L 402.6875 187.44727 z M 405.18359 192.4375 L 438.12891 192.4375 L 438.12891 225.38281 L 405.18359 225.38281 L 405.18359 192.4375 z " id="path2899" transform="rotate(16.691016)" />
         <path style="color:#000000;font-style:normal;font-variant:normal;font-weight:normal;font-stretch:normal;font-size:medium;line-height:normal;font-family:sans-serif;font-variant-ligatures:normal;font-variant-position:normal;font-variant-caps:normal;font-variant-numeric:normal;font-variant-alternates:normal;font-variant-east-asian:normal;font-feature-settings:normal;font-variation-settings:normal;text-indent:0;text-align:start;text-decoration:none;text-decoration-line:none;text-decoration-style:solid;text-decoration-color:#000000;letter-spacing:normal;word-spacing:normal;text-transform:none;writing-mode:lr-tb;direction:ltr;text-orientation:mixed;dominant-baseline:auto;baseline-shift:baseline;text-anchor:start;white-space:normal;shape-padding:0;shape-margin:0;inline-size:0;clip-rule:nonzero;display:inline;overflow:visible;visibility:visible;isolation:auto;mix-blend-mode:normal;color-interpolation:sRGB;color-interpolation-filters:linearRGB;solid-color:#000000;solid-opacity:1;vector-effect:none;fill-opacity:1;fill-rule:nonzero;stroke:none;stroke-width:4.99109;stroke-linecap:round;stroke-linejoin:round;stroke-miterlimit:4;stroke-dasharray:none;stroke-dashoffset:0;stroke-opacity:1;color-rendering:auto;image-rendering:auto;shape-rendering:auto;text-rendering:auto;enable-background:accumulate;stop-color:#000000;stop-opacity:1;opacity:1" d="M 295.98047 296.25 A 2.4955449 2.4955449 0 0 0 295.00586 296.43164 A 2.4955449 2.4955449 0 0 0 293.62305 299.67773 L 297.11328 308.34961 L 288.43164 311.81445 A 2.4957945 2.4957945 0 0 0 287.04297 315.06445 L 290.5332 323.73633 L 281.85156 327.20312 A 2.4957945 2.4957945 0 0 0 280.46094 330.45117 L 283.98047 339.19141 L 275.63867 342.80469 A 2.4957945 2.4957945 0 0 0 274.29102 345.95898 L 277.43945 354.48438 L 268.68945 357.97656 A 2.4955449 2.4955449 0 0 0 267.29688 361.21875 A 2.4955449 2.4955449 0 0 0 270.53906 362.61133 L 281.54688 358.21875 A 2.4957945 2.4957945 0 0 0 282.96289 355.03711 L 279.79102 346.44531 L 288.19531 342.80469 A 2.4957945 2.4957945 0 0 0 289.51758 339.58203 L 286.02734 330.91016 L 294.70898 327.44531 A 2.4957945 2.4957945 0 0 0 296.09961 324.19531 L 292.60742 315.52344 L 301.28906 312.05859 A 2.4957945 2.4957945 0 0 0 302.67969 308.80859 L 298.25391 297.81445 A 2.4955449 2.4955449 0 0 0 295.98047 296.25 z " id="path2923" />
         <path style="color:#000000;font-style:normal;font-variant:normal;font-weight:normal;font-stretch:normal;font-size:medium;line-height:normal;font-family:sans-serif;font-variant-ligatures:normal;font-variant-position:normal;font-variant-caps:normal;font-variant-numeric:normal;font-variant-alternates:normal;font-variant-east-asian:normal;font-feature-settings:normal;font-variation-settings:normal;text-indent:0;text-align:start;text-decoration:none;text-decoration-line:none;text-decoration-style:solid;text-decoration-color:#000000;letter-spacing:normal;word-spacing:normal;text-transform:none;writing-mode:lr-tb;direction:ltr;text-orientation:mixed;dominant-baseline:auto;baseline-shift:baseline;text-anchor:start;white-space:normal;shape-padding:0;shape-margin:0;inline-size:0;clip-rule:nonzero;display:inline;overflow:visible;visibility:visible;isolation:auto;mix-blend-mode:normal;color-interpolation:sRGB;color-interpolation-filters:linearRGB;solid-color:#000000;solid-opacity:1;vector-effect:none;fill-opacity:1;fill-rule:evenodd;stroke:none;stroke-width:4.99108;stroke-linecap:round;stroke-linejoin:round;stroke-miterlimit:4;stroke-dasharray:none;stroke-dashoffset:0;stroke-opacity:1;color-rendering:auto;image-rendering:auto;shape-rendering:auto;text-rendering:auto;enable-background:accumulate;stop-color:#000000;stop-opacity:1;opacity:1" d="M 342.9668 366.33594 A 2.4957895 2.4957895 0 0 0 341.26172 367.08008 L 324.33594 384.2832 L 307.41016 401.48633 A 2.4957895 2.4957895 0 0 0 308.5625 405.65234 L 331.92383 411.70898 L 355.28711 417.76562 A 2.4957895 2.4957895 0 0 0 358.31836 414.68359 L 351.88281 391.42383 L 345.44727 368.16406 A 2.4957895 2.4957895 0 0 0 342.9668 366.33594 z M 341.78906 373.66016 L 347.07227 392.75586 L 352.35547 411.84961 L 333.17773 406.87695 L 314 401.9043 L 327.89453 387.7832 L 341.78906 373.66016 z " id="path2903" />
         <path style="color:#000000;font-style:normal;font-variant:normal;font-weight:normal;font-stretch:normal;font-size:medium;line-height:normal;font-family:sans-serif;font-variant-ligatures:normal;font-variant-position:normal;font-variant-caps:normal;font-variant-numeric:normal;font-variant-alternates:normal;font-variant-east-asian:normal;font-feature-settings:normal;font-variation-settings:normal;text-indent:0;text-align:start;text-decoration:none;text-decoration-line:none;text-decoration-style:solid;text-decoration-color:#000000;letter-spacing:normal;word-spacing:normal;text-transform:none;writing-mode:lr-tb;direction:ltr;text-orientation:mixed;dominant-baseline:auto;baseline-shift:baseline;text-anchor:start;white-space:normal;shape-padding:0;shape-margin:0;inline-size:0;clip-rule:nonzero;display:inline;overflow:visible;visibility:visible;isolation:auto;mix-blend-mode:normal;color-interpolation:sRGB;color-interpolation-filters:linearRGB;solid-color:#000000;solid-opacity:1;vector-effect:none;fill-opacity:1;fill-rule:nonzero;stroke:none;stroke-width:4.99108;stroke-linecap:round;stroke-linejoin:round;stroke-miterlimit:4;stroke-dasharray:none;stroke-dashoffset:0;stroke-opacity:1;color-rendering:auto;image-rendering:auto;shape-rendering:auto;text-rendering:auto;enable-background:accumulate;stop-color:#000000;stop-opacity:1;opacity:1" d="M 229.56836 360.91406 C 215.17955 360.91406 203.46094 372.63268 203.46094 387.02148 C 203.46093 401.4103 215.17955 413.12696 229.56836 413.12695 C 243.95717 413.12695 255.67578 401.41029 255.67578 387.02148 C 255.67578 372.63268 243.95716 360.91407 229.56836 360.91406 z M 229.56836 365.9043 C 241.25979 365.9043 250.68359 375.33006 250.68359 387.02148 C 250.6836 398.71291 241.25979 408.13672 229.56836 408.13672 C 217.87693 408.13672 208.45312 398.71292 208.45312 387.02148 C 208.45313 375.33005 217.87693 365.90429 229.56836 365.9043 z " id="path2907" />
         <path style="color:#000000;font-style:normal;font-variant:normal;font-weight:normal;font-stretch:normal;font-size:medium;line-height:normal;font-family:sans-serif;font-variant-ligatures:normal;font-variant-position:normal;font-variant-caps:normal;font-variant-numeric:normal;font-variant-alternates:normal;font-variant-east-asian:normal;font-feature-settings:normal;font-variation-settings:normal;text-indent:0;text-align:start;text-decoration:none;text-decoration-line:none;text-decoration-style:solid;text-decoration-color:#000000;letter-spacing:normal;word-spacing:normal;text-transform:none;writing-mode:lr-tb;direction:ltr;text-orientation:mixed;dominant-baseline:auto;baseline-shift:baseline;text-anchor:start;white-space:normal;shape-padding:0;shape-margin:0;inline-size:0;clip-rule:nonzero;display:inline;overflow:visible;visibility:visible;isolation:auto;mix-blend-mode:normal;color-interpolation:sRGB;color-interpolation-filters:linearRGB;solid-color:#000000;solid-opacity:1;vector-effect:none;fill-opacity:1;fill-rule:evenodd;stroke:none;stroke-width:4.99999;stroke-linecap:round;stroke-linejoin:round;stroke-miterlimit:4;stroke-dasharray:none;stroke-dashoffset:0;stroke-opacity:1;color-rendering:auto;image-rendering:auto;shape-rendering:auto;text-rendering:auto;enable-background:accumulate;stop-color:#000000;stop-opacity:1;opacity:1" d="M 86.875 79.236328 A 2.500245 2.500245 0 0 0 85.166016 79.982422 L 68.208984 97.216797 L 51.253906 114.45117 A 2.500245 2.500245 0 0 0 52.408203 118.62305 L 75.8125 124.69141 L 99.214844 130.75781 A 2.500245 2.500245 0 0 0 102.25195 127.67188 L 95.804688 104.37109 L 89.357422 81.068359 A 2.500245 2.500245 0 0 0 86.875 79.236328 z M 85.693359 86.574219 L 90.986328 105.70312 L 96.279297 124.83203 L 77.066406 119.85156 L 57.855469 114.86914 L 71.773438 100.72266 L 85.693359 86.574219 z " id="path2911" transform="matrix(0.41116272,0.90960776,-0.90960776,0.41116272,465.64693,202.55901)" />
 transform="matrix(0.41116272,0.90960776,-0.90960776,0.41116272,465.64693,202.55901)" />
      </g>
   </g>
</svg>
