<svg width="100%" height="100%">
   <defs>
      <pattern patternTransform="scale(.3)" id="nointies" height="719.39061" width="719.39061" patternUnits="userSpaceOnUse">
         <g transform="matrix(3.7795276,0,0,3.7795276,-741.90883,-742.9189)" id="g1026">
            <path transform="matrix(0.26458333,0,0,0.26458333,196.29671,196.56396)" d="m 26.826172,174.08984 a 9.4488189,9.4488189 0 0 0 -7.869141,4.25782 L 0,207.17188 v 27.96484 a 9.4497638,9.4497638 0 0 0 6.9980469,-4.21484 L 34.748047,188.72656 a 9.4488189,9.4488189 0 0 0 -2.703125,-13.08008 9.4488189,9.4488189 0 0 0 -5.21875,-1.55664 z" style="color:#000000;font-style:normal;font-variant:normal;font-weight:normal;font-stretch:normal;font-size:medium;line-height:normal;font-family:sans-serif;font-variant-ligatures:normal;font-variant-position:normal;font-variant-caps:normal;font-variant-numeric:normal;font-variant-alternates:normal;font-variant-east-asian:normal;font-feature-settings:normal;font-variation-settings:normal;text-indent:0;text-align:start;text-decoration:none;text-decoration-line:none;text-decoration-style:solid;text-decoration-color:#000000;letter-spacing:normal;word-spacing:normal;text-transform:none;writing-mode:lr-tb;direction:ltr;text-orientation:mixed;dominant-baseline:auto;baseline-shift:baseline;text-anchor:start;white-space:normal;shape-padding:0;shape-margin:0;inline-size:0;clip-rule:nonzero;display:inline;overflow:visible;visibility:visible;opacity:1;isolation:auto;mix-blend-mode:normal;color-interpolation:sRGB;color-interpolation-filters:linearRGB;solid-color:#000000;solid-opacity:1;vector-effect:none;fill:#86ff86;fill-opacity:1;fill-rule:nonzero;stroke:none;stroke-width:18.8976;stroke-linecap:round;stroke-linejoin:round;stroke-miterlimit:4;stroke-dasharray:none;stroke-dashoffset:0;stroke-opacity:1;color-rendering:auto;image-rendering:auto;shape-rendering:auto;text-rendering:auto;enable-background:accumulate;stop-color:#000000;stop-opacity:1" id="path935" />
            <path transform="matrix(0.26458333,0,0,0.26458333,196.29671,196.56396)" d="m 476.29492,0 -55.58594,56.496094 a 9.4497449,9.4497449 0 0 0 4.36329,15.77539 l 88.44921,22.935547 88.45704,22.927739 A 9.4497449,9.4497449 0 0 0 613.45703,106.4707 L 589.08984,18.398438 584,0 h -19.61133 l 6.48242,23.439453 20.00586,72.298828 L 518.26758,76.914062 445.65234,58.082031 498.26367,4.6152344 502.80469,0 Z" style="color:#000000;font-style:normal;font-variant:normal;font-weight:normal;font-stretch:normal;font-size:medium;line-height:normal;font-family:sans-serif;font-variant-ligatures:normal;font-variant-position:normal;font-variant-caps:normal;font-variant-numeric:normal;font-variant-alternates:normal;font-variant-east-asian:normal;font-feature-settings:normal;font-variation-settings:normal;text-indent:0;text-align:start;text-decoration:none;text-decoration-line:none;text-decoration-style:solid;text-decoration-color:#000000;letter-spacing:normal;word-spacing:normal;text-transform:none;writing-mode:lr-tb;direction:ltr;text-orientation:mixed;dominant-baseline:auto;baseline-shift:baseline;text-anchor:start;white-space:normal;shape-padding:0;shape-margin:0;inline-size:0;clip-rule:nonzero;display:inline;overflow:visible;visibility:visible;opacity:1;isolation:auto;mix-blend-mode:normal;color-interpolation:sRGB;color-interpolation-filters:linearRGB;solid-color:#000000;solid-opacity:1;vector-effect:none;fill:#ffff83;fill-opacity:1;fill-rule:evenodd;stroke:none;stroke-width:18.8976;stroke-linecap:round;stroke-linejoin:round;stroke-miterlimit:4;stroke-dasharray:none;stroke-dashoffset:0;stroke-opacity:1;color-rendering:auto;image-rendering:auto;shape-rendering:auto;text-rendering:auto;enable-background:accumulate;stop-color:#000000;stop-opacity:1" id="path939" />
            <path transform="matrix(0.26458333,0,0,0.26458333,196.29671,196.56396)" d="m 27.152344,0 c -0.01,0.57585558 -0.02344,1.150342 -0.02344,1.7285156 0,54.4799624 44.371601,98.8437544 98.851564,98.8437544 53.8303,0 97.60973,-43.358117 98.65039,-96.9453169 A 9.4488,9.4488 0 0 0 224.82422,1.7285156 9.4488,9.4488 0 0 0 224.6582,0 h -18.7539 c 0.0121,0.57503926 0.0215,1.15049 0.0215,1.7285156 0,44.2669224 -35.67839,79.9472654 -79.94531,79.9472654 -44.266924,0 -79.953126,-35.680343 -79.953126,-79.9472654 0,-0.5780256 0.0094,-1.15347634 0.02148,-1.7285156 z" style="color:#000000;font-style:normal;font-variant:normal;font-weight:normal;font-stretch:normal;font-size:medium;line-height:normal;font-family:sans-serif;font-variant-ligatures:normal;font-variant-position:normal;font-variant-caps:normal;font-variant-numeric:normal;font-variant-alternates:normal;font-variant-east-asian:normal;font-feature-settings:normal;font-variation-settings:normal;text-indent:0;text-align:start;text-decoration:none;text-decoration-line:none;text-decoration-style:solid;text-decoration-color:#000000;letter-spacing:normal;word-spacing:normal;text-transform:none;writing-mode:lr-tb;direction:ltr;text-orientation:mixed;dominant-baseline:auto;baseline-shift:baseline;text-anchor:start;white-space:normal;shape-padding:0;shape-margin:0;inline-size:0;clip-rule:nonzero;display:inline;overflow:visible;visibility:visible;opacity:1;isolation:auto;mix-blend-mode:normal;color-interpolation:sRGB;color-interpolation-filters:linearRGB;solid-color:#000000;solid-opacity:1;vector-effect:none;fill:#9cfbff;fill-opacity:1;fill-rule:nonzero;stroke:none;stroke-width:18.8976;stroke-linecap:round;stroke-linejoin:round;stroke-miterlimit:4;stroke-dasharray:none;stroke-dashoffset:0;stroke-opacity:1;color-rendering:auto;image-rendering:auto;shape-rendering:auto;text-rendering:auto;enable-background:accumulate;stop-color:#000000;stop-opacity:1" id="path943" />
            <path transform="rotate(-26.331213)" id="path947" d="m 94.154297,319.17383 a 2.500245,2.500245 0 0 0 -2.5,2.5 v 48.10742 a 2.500245,2.500245 0 0 0 2.5,2.5 h 48.109373 a 2.500245,2.500245 0 0 0 2.5,-2.5 v -48.10742 a 2.500245,2.500245 0 0 0 -2.5,-2.5 z m 2.5,5 h 43.109373 v 43.10742 H 96.654297 Z" style="color:#000000;font-style:normal;font-variant:normal;font-weight:normal;font-stretch:normal;font-size:medium;line-height:normal;font-family:sans-serif;font-variant-ligatures:normal;font-variant-position:normal;font-variant-caps:normal;font-variant-numeric:normal;font-variant-alternates:normal;font-variant-east-asian:normal;font-feature-settings:normal;font-variation-settings:normal;text-indent:0;text-align:start;text-decoration:none;text-decoration-line:none;text-decoration-style:solid;text-decoration-color:#000000;letter-spacing:normal;word-spacing:normal;text-transform:none;writing-mode:lr-tb;direction:ltr;text-orientation:mixed;dominant-baseline:auto;baseline-shift:baseline;text-anchor:start;white-space:normal;shape-padding:0;shape-margin:0;inline-size:0;clip-rule:nonzero;display:inline;overflow:visible;visibility:visible;opacity:1;isolation:auto;mix-blend-mode:normal;color-interpolation:sRGB;color-interpolation-filters:linearRGB;solid-color:#000000;solid-opacity:1;vector-effect:none;fill:#ff9cb9;fill-opacity:1;fill-rule:nonzero;stroke:none;stroke-width:4.99999;stroke-linecap:round;stroke-linejoin:round;stroke-miterlimit:4;stroke-dasharray:none;stroke-dashoffset:0;stroke-opacity:1;color-rendering:auto;image-rendering:auto;shape-rendering:auto;text-rendering:auto;enable-background:accumulate;stop-color:#000000;stop-opacity:1" />
            <path transform="matrix(0.26458333,0,0,0.26458333,196.29671,196.56396)" d="m 676.23047,188.39844 a 9.4497638,9.4497638 0 0 0 -7.73242,4.25586 l -22.53711,34.27343 -34.20899,-22.64648 a 9.4497638,9.4497638 0 0 0 -13.10937,2.6875 l -22.69141,34.49414 -33.88281,-21.03711 a 9.4497638,9.4497638 0 0 0 -12.7207,2.60547 l -22.875,32.66406 -34.42969,-22.79492 a 9.4488189,9.4488189 0 0 0 -13.0957,2.66406 9.4488189,9.4488189 0 0 0 2.6582,13.09571 l 42.10547,27.875 a 9.4497638,9.4497638 0 0 0 12.95508,-2.45899 l 23.03125,-32.88672 34.10546,21.1875 a 9.4497638,9.4497638 0 0 0 12.87305,-2.83593 l 22.55274,-34.27344 34.19336,22.64844 a 9.4497638,9.4497638 0 0 0 13.11718,-2.6875 l 22.53711,-34.26758 34.20703,22.64844 a 9.4497638,9.4497638 0 0 0 6.10742,1.52734 v -27.95899 l -3.57617,5.4375 -34.20703,-22.64843 a 9.4497638,9.4497638 0 0 0 -5.37695,-1.56836 z" style="color:#000000;font-style:normal;font-variant:normal;font-weight:normal;font-stretch:normal;font-size:medium;line-height:normal;font-family:sans-serif;font-variant-ligatures:normal;font-variant-position:normal;font-variant-caps:normal;font-variant-numeric:normal;font-variant-alternates:normal;font-variant-east-asian:normal;font-feature-settings:normal;font-variation-settings:normal;text-indent:0;text-align:start;text-decoration:none;text-decoration-line:none;text-decoration-style:solid;text-decoration-color:#000000;letter-spacing:normal;word-spacing:normal;text-transform:none;writing-mode:lr-tb;direction:ltr;text-orientation:mixed;dominant-baseline:auto;baseline-shift:baseline;text-anchor:start;white-space:normal;shape-padding:0;shape-margin:0;inline-size:0;clip-rule:nonzero;display:inline;overflow:visible;visibility:visible;opacity:1;isolation:auto;mix-blend-mode:normal;color-interpolation:sRGB;color-interpolation-filters:linearRGB;solid-color:#000000;solid-opacity:1;vector-effect:none;fill:#86ff86;fill-opacity:1;fill-rule:nonzero;stroke:none;stroke-width:18.8976;stroke-linecap:round;stroke-linejoin:round;stroke-miterlimit:4;stroke-dasharray:none;stroke-dashoffset:0;stroke-opacity:1;color-rendering:auto;image-rendering:auto;shape-rendering:auto;text-rendering:auto;enable-background:accumulate;stop-color:#000000;stop-opacity:1" id="path951" />
            <path transform="matrix(0.26458333,0,0,0.26458333,196.29671,196.56396)" d="M 0,382.52344 V 402.6582 L 65.283203,426.69141 135.68164,452.60547 78.041016,500.61328 20.400391,548.62305 7.6425781,474.69922 0,430.37695 v 111.14258 l 4.5625,26.4375 a 9.4497449,9.4497449 0 0 0 15.355469,5.65625 l 70.210937,-58.47851 70.218754,-58.48243 a 9.4497449,9.4497449 0 0 0 2.44531,-11.40039 9.4497449,9.4497449 0 0 0 -5.23047,-4.72461 L 71.808594,408.95703 Z" style="color:#000000;font-style:normal;font-variant:normal;font-weight:normal;font-stretch:normal;font-size:medium;line-height:normal;font-family:sans-serif;font-variant-ligatures:normal;font-variant-position:normal;font-variant-caps:normal;font-variant-numeric:normal;font-variant-alternates:normal;font-variant-east-asian:normal;font-feature-settings:normal;font-variation-settings:normal;text-indent:0;text-align:start;text-decoration:none;text-decoration-line:none;text-decoration-style:solid;text-decoration-color:#000000;letter-spacing:normal;word-spacing:normal;text-transform:none;writing-mode:lr-tb;direction:ltr;text-orientation:mixed;dominant-baseline:auto;baseline-shift:baseline;text-anchor:start;white-space:normal;shape-padding:0;shape-margin:0;inline-size:0;clip-rule:nonzero;display:inline;overflow:visible;visibility:visible;opacity:1;isolation:auto;mix-blend-mode:normal;color-interpolation:sRGB;color-interpolation-filters:linearRGB;solid-color:#000000;solid-opacity:1;vector-effect:none;fill:#ffff83;fill-opacity:1;fill-rule:evenodd;stroke:none;stroke-width:18.8976;stroke-linecap:round;stroke-linejoin:round;stroke-miterlimit:4;stroke-dasharray:none;stroke-dashoffset:0;stroke-opacity:1;color-rendering:auto;image-rendering:auto;shape-rendering:auto;text-rendering:auto;enable-background:accumulate;stop-color:#000000;stop-opacity:1" id="path955" />
            <path transform="rotate(16.691016)" id="path959" d="m 402.9707,187.54492 a 2.50025,2.50025 0 0 0 -2.5,2.5 v 38.00586 a 2.50025,2.50025 0 0 0 2.5,2.5 h 38.00391 a 2.50025,2.50025 0 0 0 2.5,-2.5 v -38.00586 a 2.50025,2.50025 0 0 0 -2.5,-2.5 z m 2.5,5 h 33.00391 v 33.00586 H 405.4707 Z" style="color:#000000;font-style:normal;font-variant:normal;font-weight:normal;font-stretch:normal;font-size:medium;line-height:normal;font-family:sans-serif;font-variant-ligatures:normal;font-variant-position:normal;font-variant-caps:normal;font-variant-numeric:normal;font-variant-alternates:normal;font-variant-east-asian:normal;font-feature-settings:normal;font-variation-settings:normal;text-indent:0;text-align:start;text-decoration:none;text-decoration-line:none;text-decoration-style:solid;text-decoration-color:#000000;letter-spacing:normal;word-spacing:normal;text-transform:none;writing-mode:lr-tb;direction:ltr;text-orientation:mixed;dominant-baseline:auto;baseline-shift:baseline;text-anchor:start;white-space:normal;shape-padding:0;shape-margin:0;inline-size:0;clip-rule:nonzero;display:inline;overflow:visible;visibility:visible;opacity:1;isolation:auto;mix-blend-mode:normal;color-interpolation:sRGB;color-interpolation-filters:linearRGB;solid-color:#000000;solid-opacity:1;vector-effect:none;fill:#ff9cb9;fill-opacity:1;fill-rule:nonzero;stroke:none;stroke-width:5;stroke-linecap:round;stroke-linejoin:round;stroke-miterlimit:4;stroke-dasharray:none;stroke-dashoffset:0;stroke-opacity:1;color-rendering:auto;image-rendering:auto;shape-rendering:auto;text-rendering:auto;enable-background:accumulate;stop-color:#000000;stop-opacity:1" />
            <path id="path963" d="m 296.16016,296.42773 a 2.5,2.5 0 0 0 -0.97852,0.18165 2.5,2.5 0 0 0 -1.38476,3.25195 l 3.49804,8.6875 -8.69922,3.47265 a 2.50025,2.50025 0 0 0 -1.39062,3.25586 l 3.49804,8.6875 -8.69921,3.47071 a 2.50025,2.50025 0 0 0 -1.39258,3.25586 l 3.52539,8.7539 -8.35547,3.61914 a 2.50025,2.50025 0 0 0 -1.35156,3.16016 l 3.15429,8.54101 -8.76562,3.49805 a 2.5,2.5 0 0 0 -1.39453,3.25 2.5,2.5 0 0 0 3.24805,1.39453 l 11.02734,-4.40039 a 2.50025,2.50025 0 0 0 1.41797,-3.1875 l -3.17774,-8.60742 8.41993,-3.64844 a 2.50025,2.50025 0 0 0 1.32421,-3.22656 l -3.49804,-8.6875 8.69922,-3.47266 a 2.50025,2.50025 0 0 0 1.39257,-3.25585 l -3.49804,-8.6875 8.69726,-3.47071 a 2.50025,2.50025 0 0 0 1.39258,-3.25586 l -4.43359,-11.01367 a 2.5,2.5 0 0 0 -2.27539,-1.56641 z" style="color:#000000;font-style:normal;font-variant:normal;font-weight:normal;font-stretch:normal;font-size:medium;line-height:normal;font-family:sans-serif;font-variant-ligatures:normal;font-variant-position:normal;font-variant-caps:normal;font-variant-numeric:normal;font-variant-alternates:normal;font-variant-east-asian:normal;font-feature-settings:normal;font-variation-settings:normal;text-indent:0;text-align:start;text-decoration:none;text-decoration-line:none;text-decoration-style:solid;text-decoration-color:#000000;letter-spacing:normal;word-spacing:normal;text-transform:none;writing-mode:lr-tb;direction:ltr;text-orientation:mixed;dominant-baseline:auto;baseline-shift:baseline;text-anchor:start;white-space:normal;shape-padding:0;shape-margin:0;inline-size:0;clip-rule:nonzero;display:inline;overflow:visible;visibility:visible;opacity:1;isolation:auto;mix-blend-mode:normal;color-interpolation:sRGB;color-interpolation-filters:linearRGB;solid-color:#000000;solid-opacity:1;vector-effect:none;fill:#86ff86;fill-opacity:1;fill-rule:nonzero;stroke:none;stroke-width:5;stroke-linecap:round;stroke-linejoin:round;stroke-miterlimit:4;stroke-dasharray:none;stroke-dashoffset:0;stroke-opacity:1;color-rendering:auto;image-rendering:auto;shape-rendering:auto;text-rendering:auto;enable-background:accumulate;stop-color:#000000;stop-opacity:1" />
            <path transform="matrix(0.26458333,0,0,0.26458333,196.29671,196.56396)" d="m 555.49805,642.79883 a 9.4497449,9.4497449 0 0 0 -0.15821,0.004 9.4497449,9.4497449 0 0 0 -6.45898,2.8125 l -64.08984,65.13672 -8.49805,8.63867 h 26.51562 l 48.06641,-48.85546 13.51172,48.85546 h 19.61133 l -19.27539,-69.66406 a 9.4497449,9.4497449 0 0 0 -9.22461,-6.92773 z" style="color:#000000;font-style:normal;font-variant:normal;font-weight:normal;font-stretch:normal;font-size:medium;line-height:normal;font-family:sans-serif;font-variant-ligatures:normal;font-variant-position:normal;font-variant-caps:normal;font-variant-numeric:normal;font-variant-alternates:normal;font-variant-east-asian:normal;font-feature-settings:normal;font-variation-settings:normal;text-indent:0;text-align:start;text-decoration:none;text-decoration-line:none;text-decoration-style:solid;text-decoration-color:#000000;letter-spacing:normal;word-spacing:normal;text-transform:none;writing-mode:lr-tb;direction:ltr;text-orientation:mixed;dominant-baseline:auto;baseline-shift:baseline;text-anchor:start;white-space:normal;shape-padding:0;shape-margin:0;inline-size:0;clip-rule:nonzero;display:inline;overflow:visible;visibility:visible;opacity:1;isolation:auto;mix-blend-mode:normal;color-interpolation:sRGB;color-interpolation-filters:linearRGB;solid-color:#000000;solid-opacity:1;vector-effect:none;fill:#ffff83;fill-opacity:1;fill-rule:evenodd;stroke:none;stroke-width:18.8976;stroke-linecap:round;stroke-linejoin:round;stroke-miterlimit:4;stroke-dasharray:none;stroke-dashoffset:0;stroke-opacity:1;color-rendering:auto;image-rendering:auto;shape-rendering:auto;text-rendering:auto;enable-background:accumulate;stop-color:#000000;stop-opacity:1" id="path967" />
            <path transform="matrix(0.26458333,0,0,0.26458333,196.29671,196.56396)" d="m 125.98047,622.27344 c -53.900483,0 -97.898091,43.4333 -98.828126,97.11718 h 18.896484 c 0.917266,-43.46135 36.24405,-78.2207 79.931642,-78.2207 43.68759,0 79.00675,34.75935 79.92383,78.2207 h 18.7539 a 9.4488,9.4488 0 0 0 -0.0273,-0.14257 c -1.02849,-53.59782 -44.81234,-96.97461 -98.65039,-96.97461 z" style="color:#000000;font-style:normal;font-variant:normal;font-weight:normal;font-stretch:normal;font-size:medium;line-height:normal;font-family:sans-serif;font-variant-ligatures:normal;font-variant-position:normal;font-variant-caps:normal;font-variant-numeric:normal;font-variant-alternates:normal;font-variant-east-asian:normal;font-feature-settings:normal;font-variation-settings:normal;text-indent:0;text-align:start;text-decoration:none;text-decoration-line:none;text-decoration-style:solid;text-decoration-color:#000000;letter-spacing:normal;word-spacing:normal;text-transform:none;writing-mode:lr-tb;direction:ltr;text-orientation:mixed;dominant-baseline:auto;baseline-shift:baseline;text-anchor:start;white-space:normal;shape-padding:0;shape-margin:0;inline-size:0;clip-rule:nonzero;display:inline;overflow:visible;visibility:visible;opacity:1;isolation:auto;mix-blend-mode:normal;color-interpolation:sRGB;color-interpolation-filters:linearRGB;solid-color:#000000;solid-opacity:1;vector-effect:none;fill:#9cfbff;fill-opacity:1;fill-rule:nonzero;stroke:none;stroke-width:18.8976;stroke-linecap:round;stroke-linejoin:round;stroke-miterlimit:4;stroke-dasharray:none;stroke-dashoffset:0;stroke-opacity:1;color-rendering:auto;image-rendering:auto;shape-rendering:auto;text-rendering:auto;enable-background:accumulate;stop-color:#000000;stop-opacity:1" id="path971" />
            <path transform="matrix(0.26458333,0,0,0.26458333,196.29671,196.56396)" d="m 702.16016,376.81445 a 9.4497449,9.4497449 0 0 0 -9.2793,11.04883 l 15.53516,90.05274 10.9746,63.59179 V 430.36133 l -5.10156,-29.58203 5.10156,1.8789 v -20.13476 l -13.93945,-5.13086 a 9.4497449,9.4497449 0 0 0 -3.29101,-0.57813 z" style="color:#000000;font-style:normal;font-variant:normal;font-weight:normal;font-stretch:normal;font-size:medium;line-height:normal;font-family:sans-serif;font-variant-ligatures:normal;font-variant-position:normal;font-variant-caps:normal;font-variant-numeric:normal;font-variant-alternates:normal;font-variant-east-asian:normal;font-feature-settings:normal;font-variation-settings:normal;text-indent:0;text-align:start;text-decoration:none;text-decoration-line:none;text-decoration-style:solid;text-decoration-color:#000000;letter-spacing:normal;word-spacing:normal;text-transform:none;writing-mode:lr-tb;direction:ltr;text-orientation:mixed;dominant-baseline:auto;baseline-shift:baseline;text-anchor:start;white-space:normal;shape-padding:0;shape-margin:0;inline-size:0;clip-rule:nonzero;display:inline;overflow:visible;visibility:visible;opacity:1;isolation:auto;mix-blend-mode:normal;color-interpolation:sRGB;color-interpolation-filters:linearRGB;solid-color:#000000;solid-opacity:1;vector-effect:none;fill:#ffff83;fill-opacity:1;fill-rule:evenodd;stroke:none;stroke-width:18.8976;stroke-linecap:round;stroke-linejoin:round;stroke-miterlimit:4;stroke-dasharray:none;stroke-dashoffset:0;stroke-opacity:1;color-rendering:auto;image-rendering:auto;shape-rendering:auto;text-rendering:auto;enable-background:accumulate;stop-color:#000000;stop-opacity:1" id="path975" />
         </g>
      </pattern>
   </defs>
   <rect x="0" y="0" width="100%" height="100%" fill="url(#nointies)" />
</svg>
